<?xml version="1.0" encoding="utf-8"?>
<!-- Svg Vector Icons : http://www.onlinewebfonts.com/icon -->
<!DOCTYPE svg PUBLIC "-//W3C//DTD SVG 1.1//EN" "http://www.w3.org/Graphics/SVG/1.1/DTD/svg11.dtd">
<svg version="1.1" xmlns="http://www.w3.org/2000/svg" xmlns:xlink="http://www.w3.org/1999/xlink" x="0px" y="0px" viewBox="0 0 1000 1000" enable-background="new 0 0 1000 1000" xml:space="preserve">
<metadata> Svg Vector Icons : http://www.onlinewebfonts.com/icon </metadata>
<g><g transform="translate(0.000000,511.000000) scale(0.100000,-0.100000)"><path d="M4743.7,4999.1c-1183.9-107.6-2214.1-991.7-2529.3-2170.5c-64.1-240.9-66.6-287-79.4-1063.5l-10.3-814.9h-99.9h-99.9v-820v-820H5000h3075.1v820v820h-102.5h-102.5v686.8c0,779-30.8,1045.5-156.3,1401.7c-148.7,422.8-335.7,727.8-638.1,1048.1C6450.4,4745.4,5607.3,5075.9,4743.7,4999.1z M5576.6,4540.4c845.7-220.4,1529.9-889.2,1796.4-1757.9l71.8-230.6l10.2-1004.5l7.7-1007.1h102.5h100v-410v-410h-602.2h-602.2v817.5v820l-125.6,151.2c-256.3,307.5-484.3,466.4-671.4,466.4c-146.1,0-243.4-51.3-456.2-246c-99.9-89.7-194.7-164-207.6-164s-102.5,69.2-197.3,156.3c-220.4,199.9-343.4,263.9-481.8,248.6c-179.4-20.5-299.8-97.4-543.3-345.9l-238.3-243.4V550.4v-830.3h-602.2h-602.2v410v410h99.9h102.5l7.7,1007.1c10.2,950.7,12.8,1014.8,69.2,1209.5c233.2,817.5,861,1473.5,1665.7,1742.6C4661.7,4624.9,5181.9,4642.9,5576.6,4540.4z M4477.2,1490.9c53.8-38.4,123-97.4,151.2-130.7c105.1-120.5,248.6-205,348.5-205c143.5,0,205,33.3,399.8,207.6c94.8,87.1,197.3,169.1,225.5,181.9c69.2,30.7,153.8-2.6,289.6-120.4l107.6-94.8V524.8v-804.6H5000h-999.4v804.6v804.6l94.8,82c79.4,71.8,217.8,148.6,266.5,153.8C4369.6,1565.2,4423.4,1531.9,4477.2,1490.9z"/><path d="M3154.9-1099.9v-205h192.2h192.2v-1742.6V-4790H3770h230.6v1742.5v1742.6h192.2H4385v205v205h-615h-615V-1099.9z"/><path d="M5615-1099.9v-205h192.2h192.2v-1742.6V-4790H6230h230.6v1742.5v1742.6h192.2h192.2v205v205h-615h-615V-1099.9z"/></g></g>
</svg>