<?xml version="1.0" encoding="utf-8"?>
<!-- Generator: Adobe Illustrator 19.0.0, SVG Export Plug-In . SVG Version: 6.00 Build 0)  -->
<svg version="1.1" xmlns="http://www.w3.org/2000/svg" xmlns:xlink="http://www.w3.org/1999/xlink" x="0px" y="0px"
	 viewBox="100 141 1000 1000" style="enable-background:new 100 141 1000 1000;" xml:space="preserve">
<style type="text/css">
	.st0{fill:#FFFFFF;}
</style>
<g id="Layer_2">
</g>
<g id="Layer_1">
	<g>
		<path class="st0" d="M574.4,195.6C456,206.4,353,294.8,321.4,412.6c-6.4,24.1-6.7,28.7-7.9,106.3l-1,81.5h-10h-10v82v82H600h307.5
			v-82v-82h-10.3H887v-68.7c0-77.9-3.1-104.5-15.6-140.2c-14.9-42.3-33.6-72.8-63.8-104.8C745,221,660.7,187.9,574.4,195.6z
			 M657.7,241.5c84.6,22,153,88.9,179.6,175.8l7.2,23.1l1,100.4l0.8,100.7h10.3h10v41v41h-60.2h-60.2v-81.8v-82l-12.6-15.1
			c-25.6-30.8-48.4-46.6-67.1-46.6c-14.6,0-24.3,5.1-45.6,24.6c-10,9-19.5,16.4-20.8,16.4s-10.3-6.9-19.7-15.6
			c-22-20-34.3-26.4-48.2-24.9c-17.9,2-30,9.7-54.3,34.6l-23.8,24.3v83.1v83h-60.2h-60.2v-41v-41h10h10.3l0.8-100.7
			c1-95.1,1.3-101.5,6.9-121c23.3-81.8,86.1-147.4,166.6-174.3C566.2,233,618.2,231.2,657.7,241.5z M547.7,546.4
			c5.4,3.8,12.3,9.7,15.1,13.1c10.5,12.1,24.9,20.5,34.8,20.5c14.4,0,20.5-3.3,40-20.8c9.5-8.7,19.7-16.9,22.6-18.2
			c6.9-3.1,15.4,0.3,29,12l10.8,9.5V643v80.5H600h-99.9V643v-80.5l9.5-8.2c7.9-7.2,21.8-14.9,26.6-15.4
			C537,539,542.3,542.3,547.7,546.4z"/>
		<polygon class="st0" points="500.1,1000.3 500.1,826 519.3,826 538.5,826 538.5,805.5 538.5,785 477,785 415.5,785 415.5,805.5 
			415.5,805.5 415.5,826 434.7,826 453.9,826 453.9,1000.3 453.9,1087.5 500.1,1087.5 		"/>
		<polygon class="st0" points="746.1,1000.3 746.1,826 765.3,826 784.5,826 784.5,805.5 784.5,785 723,785 661.5,785 661.5,805.5 
			661.5,805.5 661.5,826 680.7,826 699.9,826 699.9,1000.3 699.9,1087.5 746.1,1087.5 		"/>
	</g>
</g>
</svg>
