<?xml version="1.0" encoding="utf-8"?>
<!-- Generator: Adobe Illustrator 16.0.0, SVG Export Plug-In . SVG Version: 6.00 Build 0)  -->
<!DOCTYPE svg PUBLIC "-//W3C//DTD SVG 1.1//EN" "http://www.w3.org/Graphics/SVG/1.1/DTD/svg11.dtd">
<svg version="1.1" id="Layer_1" xmlns="http://www.w3.org/2000/svg" xmlns:xlink="http://www.w3.org/1999/xlink" x="0px" y="0px"
	 width="512px" height="512px" viewBox="0 0 512 512" enable-background="new 0 0 512 512" xml:space="preserve">
<path d="M256,0C167.781,0,96,71.781,96,160c0,39.656,18.063,75.938,35.563,111C146.188,300.406,160,328.156,160,352
	c0,17.688,14.313,32,32,32h128c17.688,0,32-14.313,32-32c0-25.031,13.969-52.906,28.781-82.375C398.094,235.125,416,199.438,416,160
	C416,71.781,344.219,0,256,0z M320,352H192c0-63-64-128-64-192c0-70.688,57.313-128,128-128s128,57.313,128,128
	C384,224,320,287,320,352z M320,96c0,11,27,165-64,160c0,32,0,64,0,64h-32c0,0,15-109,48-141c-1-2-48,13-48,77
	C224,256,134,140,320,96z M320,432c8.844,0,16,7.156,16,16s-7.156,16-16,16c8.844,0,16,7.156,16,16s-7.156,16-16,16h-32
	c-7.563,10.063-19.406,16-32,16s-24.438-5.938-32-16h-32c-8.844,0-16-7.156-16-16s7.156-16,16-16c-8.844,0-16-7.156-16-16
	s7.156-16,16-16c-8.844,0-16-7.156-16-16s7.156-16,16-16h128c8.844,0,16,7.156,16,16S328.844,432,320,432z"/>
</svg>
