<?xml version="1.0" encoding="utf-8"?>
<!-- Generator: Adobe Illustrator 19.0.0, SVG Export Plug-In . SVG Version: 6.00 Build 0)  -->
<svg version="1.1" id="Layer_1" xmlns="http://www.w3.org/2000/svg" xmlns:xlink="http://www.w3.org/1999/xlink" x="0px" y="0px"
	 viewBox="192 -192 512 512" style="enable-background:new 192 -192 512 512;" xml:space="preserve">
<style type="text/css">
	.st0{fill:#4CAF50;}
	.st1{fill:#FFFFFF;}
</style>
<path class="st0" d="M512-96c0,11,27,165-64,160c0,32,0,64,0,64h-32c0,0,15-109,48-141c-1-2-48,13-48,77C416,64,326-52,512-96z"/>
<path class="st1" d="M448-192c-88.2,0-160,71.8-160,160c0,39.7,18.1,75.9,35.6,111c14.6,29.4,28.4,57.2,28.4,81
	c0,17.7,14.3,32,32,32h128c17.7,0,32-14.3,32-32c0-25,14-52.9,28.8-82.4C590.1,43.1,608,7.4,608-32C608-120.2,536.2-192,448-192z
	 M512,160H384c0-63-64-128-64-192c0-70.7,57.3-128,128-128s128,57.3,128,128C576,32,512,95,512,160z M512,240c8.8,0,16,7.2,16,16
	s-7.2,16-16,16c8.8,0,16,7.2,16,16s-7.2,16-16,16h-32c-7.6,10.1-19.4,16-32,16s-24.4-5.9-32-16h-32c-8.8,0-16-7.2-16-16
	s7.2-16,16-16c-8.8,0-16-7.2-16-16s7.2-16,16-16c-8.8,0-16-7.2-16-16s7.2-16,16-16h128c8.8,0,16,7.2,16,16S520.8,240,512,240z"/>
</svg>
