<?xml version="1.0" encoding="utf-8"?>
<!-- Generator: Adobe Illustrator 19.0.0, SVG Export Plug-In . SVG Version: 6.00 Build 0)  -->
<svg version="1.1" id="Layer_1" xmlns="http://www.w3.org/2000/svg" xmlns:xlink="http://www.w3.org/1999/xlink" x="0px" y="0px"
	 viewBox="0 0 800 600" style="enable-background:new 0 0 800 600;" xml:space="preserve">
<style type="text/css">
	.Drop_x0020_Shadow{fill:none;}
	.Outer_x0020_Glow_x0020_5_x0020_pt{fill:none;}
	.Blue_x0020_Neon{fill:none;stroke:#8AACDA;stroke-width:7;stroke-linecap:round;stroke-linejoin:round;}
	.Chrome_x0020_Highlight{fill:url(#SVGID_1_);stroke:#FFFFFF;stroke-width:0.3629;stroke-miterlimit:1;}
	.Jive_GS{fill:#FFDD00;}
	.Alyssa_GS{fill:#A6D0E4;}
	.st0{fill:#EEEEEE;}
	.st1{fill:#A4A4A4;}
</style>
<linearGradient id="SVGID_1_" gradientUnits="userSpaceOnUse" x1="0" y1="0" x2="4.489659e-011" y2="-1">
	<stop  offset="0" style="stop-color:#656565"/>
	<stop  offset="0.618" style="stop-color:#1B1B1B"/>
	<stop  offset="0.6292" style="stop-color:#545454"/>
	<stop  offset="0.9831" style="stop-color:#3E3E3E"/>
</linearGradient>
<rect id="XMLID_2_" class="st0" width="800" height="600"/>
<g id="XMLID_1_">
	<path id="XMLID_4_" class="st1" d="M172.4,275.5c-3.5,0-6.6-0.7-9.2-2.2c-2.6-1.5-4.6-3.5-6-6.2v26.3h-14.1v-65.1h12.3v7.5
		c1.7-2.6,3.8-4.7,6.4-6.2c2.6-1.5,5.6-2.2,9.1-2.2c3.1,0,6,0.6,8.6,1.9c2.6,1.2,4.9,2.9,6.8,5.1c1.9,2.1,3.4,4.7,4.5,7.6
		c1.1,2.9,1.6,6,1.6,9.4c0,3.5-0.5,6.7-1.5,9.6c-1,2.9-2.4,5.5-4.1,7.6c-1.8,2.1-3.9,3.8-6.4,5.1S175.3,275.5,172.4,275.5z
		 M167.6,263.6c1.5,0,2.9-0.3,4.2-1c1.3-0.7,2.4-1.6,3.3-2.7c0.9-1.1,1.7-2.4,2.2-3.9c0.5-1.5,0.8-3.1,0.8-4.7
		c0-1.7-0.3-3.3-0.8-4.7c-0.6-1.4-1.3-2.7-2.3-3.8s-2.1-1.9-3.5-2.5c-1.4-0.6-2.9-0.9-4.5-0.9c-1.9,0-3.8,0.6-5.6,1.7
		c-1.8,1.1-3.2,2.7-4.1,4.6v9.5c0.9,2.4,2.4,4.3,4.3,5.9C163.4,262.8,165.4,263.6,167.6,263.6z"/>
	<path id="XMLID_7_" class="st1" d="M199.4,210.2h14.1v47.9c0,3.5,1.5,5.3,4.5,5.3c0.7,0,1.5-0.1,2.3-0.3c0.9-0.2,1.6-0.5,2.3-0.9
		l1.9,10.6c-1.8,0.8-3.8,1.5-6.1,1.9c-2.3,0.5-4.4,0.7-6.4,0.7c-4.1,0-7.2-1.1-9.4-3.2c-2.2-2.1-3.3-5.2-3.3-9.2V210.2z"/>
	<path id="XMLID_9_" class="st1" d="M242.3,275.5c-2.3,0-4.4-0.4-6.4-1.1c-2-0.7-3.7-1.8-5.1-3.1c-1.4-1.3-2.5-2.9-3.4-4.7
		c-0.8-1.8-1.2-3.8-1.2-5.9c0-2.3,0.5-4.4,1.5-6.3c1-1.9,2.3-3.5,4.1-4.9c1.8-1.4,3.9-2.4,6.3-3.2c2.4-0.8,5.1-1.1,8-1.1
		c1.9,0,3.8,0.2,5.6,0.5c1.8,0.3,3.4,0.8,4.8,1.5v-2.1c0-5.4-3.1-8-9.3-8c-2.5,0-4.9,0.4-7.2,1.3c-2.3,0.9-4.7,2.1-7.2,3.8l-4.1-8.8
		c3.1-2,6.2-3.5,9.5-4.5c3.3-1,6.8-1.5,10.5-1.5c7,0,12.4,1.6,16.2,4.9c3.8,3.3,5.7,8.1,5.7,14.5v11.9c0,1.4,0.2,2.4,0.7,3
		c0.4,0.6,1.2,0.9,2.3,1v11.9c-1.2,0.3-2.4,0.5-3.4,0.6c-1,0.1-1.9,0.1-2.7,0.1c-2.6,0-4.6-0.5-6-1.5c-1.4-1-2.2-2.5-2.6-4.4
		l-0.3-2.1c-2.1,2.6-4.5,4.7-7.4,6.1C248.5,274.8,245.4,275.5,242.3,275.5z M246.4,265.3c1.5,0,3-0.3,4.5-0.8
		c1.4-0.5,2.6-1.2,3.6-2.1c1.4-1.1,2-2.2,2-3.4v-4.4c-1.2-0.5-2.6-0.8-4-1.1c-1.4-0.3-2.8-0.4-4-0.4c-2.6,0-4.7,0.6-6.4,1.8
		c-1.7,1.2-2.5,2.7-2.5,4.6c0,1.7,0.6,3.1,1.9,4.2C242.8,264.8,244.4,265.3,246.4,265.3z"/>
	<path id="XMLID_12_" class="st1" d="M278.1,251.4c0-3.2,0.6-6.2,1.7-9.1c1.1-2.9,2.7-5.5,4.9-7.7c2.1-2.2,4.7-4,7.8-5.3
		c3.1-1.3,6.6-1.9,10.5-1.9c5.4,0,9.9,1.1,13.5,3.4c3.6,2.3,6.4,5.2,8.2,8.9l-13.8,4.1c-1.8-2.9-4.5-4.4-8-4.4
		c-2.9,0-5.4,1.1-7.4,3.3c-2,2.2-3,5.1-3,8.7c0,1.8,0.3,3.5,0.8,5c0.5,1.5,1.3,2.8,2.2,3.8c0.9,1.1,2,1.9,3.3,2.5
		c1.3,0.6,2.6,0.9,4,0.9c1.8,0,3.4-0.4,4.9-1.3c1.5-0.9,2.6-2,3.3-3.3l13.8,4.2c-1.7,3.6-4.4,6.5-8.2,8.8c-3.7,2.3-8.3,3.4-13.6,3.4
		c-3.9,0-7.4-0.7-10.5-2s-5.7-3.1-7.9-5.3c-2.1-2.2-3.8-4.8-4.9-7.7C278.7,257.6,278.1,254.6,278.1,251.4z"/>
	<path id="XMLID_14_" class="st1" d="M352.8,275.5c-3.9,0-7.4-0.6-10.5-1.9c-3.1-1.3-5.7-3-7.9-5.2c-2.1-2.2-3.8-4.7-4.9-7.5
		c-1.1-2.9-1.7-5.8-1.7-9c0-3.4,0.6-6.5,1.7-9.5c1.1-3,2.7-5.6,4.9-7.8c2.1-2.2,4.7-4,7.8-5.3c3.1-1.3,6.6-1.9,10.5-1.9
		c3.9,0,7.4,0.6,10.5,1.9c3.1,1.3,5.6,3,7.8,5.3c2.1,2.2,3.7,4.8,4.8,7.6c1.1,2.9,1.6,5.9,1.6,9.1c0,0.8,0,1.6-0.1,2.4
		c-0.1,0.8-0.1,1.5-0.3,2.1H343c0.2,3.1,1.4,5.5,3.4,7.1c2,1.6,4.3,2.4,6.9,2.4c2.1,0,4-0.5,6-1.5c1.9-1,3.2-2.4,3.8-4.1l12,3.4
		c-1.8,3.6-4.6,6.6-8.5,8.9C362.8,274.3,358.2,275.5,352.8,275.5z M362.6,247.1c-0.3-2.9-1.4-5.3-3.2-7c-1.8-1.7-4.1-2.6-6.8-2.6
		c-2.8,0-5,0.9-6.8,2.6c-1.8,1.7-2.8,4-3.1,6.9H362.6z"/>
	<path id="XMLID_17_" class="st1" d="M428.6,274.6h-14.1v-26c0-3-0.6-5.2-1.8-6.6c-1.2-1.4-2.8-2.1-4.9-2.1c-0.8,0-1.7,0.2-2.7,0.6
		c-1,0.4-1.9,0.9-2.8,1.7c-0.9,0.7-1.8,1.6-2.5,2.6c-0.8,1-1.4,2.1-1.8,3.4v26.6H384v-64.4h14.1V236c1.7-2.8,4-4.9,6.7-6.4
		c2.8-1.5,5.9-2.3,9.2-2.3c3.1,0,5.6,0.5,7.5,1.6c1.9,1.1,3.4,2.5,4.4,4.1s1.7,3.6,2.1,5.6c0.4,2.1,0.5,4.1,0.5,6.1V274.6z"/>
	<path id="XMLID_19_" class="st1" d="M460.1,275.5c-3.9,0-7.5-0.6-10.5-1.9c-3.1-1.3-5.7-3-7.8-5.3c-2.1-2.2-3.7-4.8-4.8-7.7
		c-1.1-2.9-1.6-6-1.6-9.1s0.5-6.2,1.6-9.1c1.1-2.9,2.7-5.5,4.8-7.7s4.7-4,7.8-5.3c3.1-1.3,6.6-2,10.5-2c3.9,0,7.4,0.7,10.5,2
		c3.1,1.3,5.6,3.1,7.8,5.3c2.1,2.2,3.7,4.8,4.9,7.7c1.1,2.9,1.7,6,1.7,9.1s-0.5,6.2-1.6,9.1c-1.1,2.9-2.7,5.5-4.8,7.7
		c-2.1,2.2-4.7,4-7.8,5.3C467.5,274.8,464,275.5,460.1,275.5z M449.7,251.5c0,3.6,1,6.6,2.9,8.8s4.4,3.3,7.4,3.3
		c1.5,0,2.8-0.3,4.1-0.9c1.2-0.6,2.3-1.4,3.2-2.5c0.9-1.1,1.6-2.3,2.2-3.8c0.5-1.5,0.8-3.1,0.8-4.9c0-3.6-1-6.6-2.9-8.8
		s-4.4-3.3-7.3-3.3c-1.5,0-2.8,0.3-4.1,0.9c-1.3,0.6-2.4,1.4-3.3,2.5c-0.9,1.1-1.6,2.3-2.2,3.8C450,248.1,449.7,249.7,449.7,251.5z"
		/>
	<path id="XMLID_22_" class="st1" d="M491.6,210.2h14.1v47.9c0,3.5,1.5,5.3,4.5,5.3c0.7,0,1.5-0.1,2.3-0.3c0.9-0.2,1.6-0.5,2.3-0.9
		l1.9,10.6c-1.8,0.8-3.8,1.5-6.1,1.9s-4.4,0.7-6.4,0.7c-4.1,0-7.2-1.1-9.4-3.2c-2.2-2.1-3.3-5.2-3.3-9.2V210.2z"/>
	<path id="XMLID_24_" class="st1" d="M540.6,275.5c-3.2,0-6.1-0.6-8.8-1.8s-5-2.9-6.9-5.1c-1.9-2.2-3.5-4.7-4.5-7.6
		c-1.1-2.9-1.6-6.1-1.6-9.6c0-3.4,0.5-6.5,1.5-9.4c1-2.9,2.4-5.5,4.2-7.6c1.8-2.1,4-3.8,6.5-5.1c2.5-1.2,5.3-1.9,8.3-1.9
		c3.2,0,6.2,0.8,8.8,2.3c2.6,1.5,4.6,3.6,6,6.2v-25.7h14.1v48.5c0,1.4,0.2,2.4,0.7,3c0.4,0.6,1.2,0.9,2.3,1v11.9
		c-1.3,0.3-2.4,0.5-3.4,0.6c-0.9,0.1-1.8,0.1-2.6,0.1c-2.5,0-4.5-0.5-6-1.5c-1.5-1-2.4-2.5-2.6-4.5l-0.3-2.4c-1.6,2.9-3.9,5-6.7,6.4
		C546.8,274.8,543.8,275.5,540.6,275.5z M544.4,263.6c1.9,0,3.8-0.6,5.6-1.7c1.8-1.1,3.2-2.7,4.1-4.7v-9.7c-0.9-2.4-2.3-4.3-4.3-5.8
		c-2-1.5-4-2.3-6.1-2.3c-1.5,0-2.9,0.3-4.2,1c-1.3,0.7-2.4,1.6-3.3,2.7c-0.9,1.1-1.7,2.4-2.2,3.9c-0.5,1.5-0.8,3-0.8,4.7
		c0,1.7,0.3,3.3,0.8,4.8c0.6,1.5,1.3,2.7,2.3,3.8c1,1.1,2.1,1.9,3.5,2.5C541.3,263.3,542.8,263.6,544.4,263.6z"/>
	<path id="XMLID_27_" class="st1" d="M601.2,275.5c-3.9,0-7.4-0.6-10.5-1.9c-3.1-1.3-5.7-3-7.9-5.2c-2.1-2.2-3.8-4.7-4.9-7.5
		c-1.1-2.9-1.7-5.8-1.7-9c0-3.4,0.6-6.5,1.7-9.5c1.1-3,2.7-5.6,4.9-7.8c2.1-2.2,4.7-4,7.8-5.3c3.1-1.3,6.6-1.9,10.5-1.9
		c3.9,0,7.4,0.6,10.5,1.9c3.1,1.3,5.6,3,7.8,5.3c2.1,2.2,3.7,4.8,4.8,7.6c1.1,2.9,1.6,5.9,1.6,9.1c0,0.8,0,1.6-0.1,2.4
		c-0.1,0.8-0.1,1.5-0.3,2.1h-34.2c0.2,3.1,1.4,5.5,3.4,7.1c2,1.6,4.3,2.4,6.9,2.4c2.1,0,4-0.5,6-1.5c1.9-1,3.2-2.4,3.8-4.1l12,3.4
		c-1.8,3.6-4.6,6.6-8.5,8.9S606.6,275.5,601.2,275.5z M611,247.1c-0.3-2.9-1.4-5.3-3.2-7c-1.8-1.7-4.1-2.6-6.8-2.6
		c-2.8,0-5,0.9-6.8,2.6c-1.8,1.7-2.8,4-3.1,6.9H611z"/>
	<path id="XMLID_30_" class="st1" d="M661.8,240.3c-3.4,0.1-6.5,0.6-9.3,1.7c-2.8,1.1-4.8,2.6-6,4.8v27.8h-14.1v-46.3h13v9.4
		c1.6-3.1,3.6-5.6,6.1-7.3c2.5-1.8,5.2-2.7,8-2.7c0.6,0,1.1,0,1.4,0c0.3,0,0.6,0,0.9,0.1V240.3z"/>
	<path id="XMLID_32_" class="st1" d="M270.4,328.9v-12.8h14.1v12.8H270.4z M270.4,380.5v-46.3h14.1v46.3H270.4z"/>
	<path id="XMLID_35_" class="st1" d="M367.5,380.5h-14.1v-26c0-3.1-0.6-5.3-1.7-6.7c-1.1-1.4-2.6-2.1-4.3-2.1
		c-0.9,0-1.9,0.2-2.9,0.6c-1,0.4-1.9,1-2.7,1.7c-0.8,0.7-1.6,1.6-2.3,2.6c-0.7,1-1.2,2.1-1.6,3.3v26.6h-14.1v-26
		c0-3.1-0.6-5.3-1.7-6.7c-1.1-1.4-2.6-2.1-4.3-2.1c-1.9,0-3.7,0.8-5.5,2.3c-1.8,1.5-3.1,3.5-3.9,6v26.6h-14.1v-46.3h12.7v7.8
		c1.7-2.8,4-5,6.9-6.4c2.9-1.5,6.3-2.2,10.2-2.2c1.9,0,3.6,0.2,5.1,0.7c1.4,0.5,2.7,1.1,3.8,1.9c1.1,0.8,1.9,1.8,2.6,2.9
		c0.6,1.1,1.1,2.3,1.4,3.5c1.8-2.9,4.1-5.1,7-6.7c2.9-1.6,6.2-2.3,9.9-2.3c2.9,0,5.3,0.5,7.1,1.6c1.8,1.1,3.2,2.5,4.2,4.2
		c1,1.7,1.7,3.6,2,5.7c0.3,2.1,0.5,4.1,0.5,6V380.5z"/>
	<path id="XMLID_37_" class="st1" d="M389.9,381.4c-2.3,0-4.4-0.4-6.4-1.1c-2-0.7-3.7-1.8-5.1-3.1c-1.4-1.3-2.5-2.9-3.4-4.7
		c-0.8-1.8-1.2-3.8-1.2-5.9c0-2.3,0.5-4.4,1.5-6.3c1-1.9,2.3-3.5,4.1-4.9c1.8-1.4,3.9-2.4,6.3-3.2c2.4-0.8,5.1-1.1,8-1.1
		c1.9,0,3.8,0.2,5.6,0.5c1.8,0.3,3.4,0.8,4.8,1.5V351c0-5.4-3.1-8-9.3-8c-2.5,0-4.9,0.4-7.2,1.3c-2.3,0.9-4.7,2.1-7.2,3.8l-4.1-8.8
		c3.1-2,6.2-3.5,9.5-4.5c3.3-1,6.8-1.5,10.5-1.5c7,0,12.4,1.6,16.2,4.9c3.8,3.3,5.7,8.1,5.7,14.5v11.9c0,1.4,0.2,2.4,0.7,3
		c0.4,0.6,1.2,0.9,2.3,1v11.9c-1.2,0.3-2.4,0.5-3.4,0.6c-1,0.1-1.9,0.1-2.7,0.1c-2.6,0-4.6-0.5-6-1.5c-1.4-1-2.2-2.5-2.6-4.4
		l-0.3-2.1c-2.1,2.6-4.5,4.7-7.4,6.1C396.1,380.7,393.1,381.4,389.9,381.4z M394,371.2c1.5,0,3-0.3,4.5-0.8c1.4-0.5,2.6-1.2,3.6-2.1
		c1.4-1.1,2-2.2,2-3.4v-4.4c-1.2-0.5-2.6-0.8-4-1.1c-1.4-0.3-2.8-0.4-4-0.4c-2.6,0-4.7,0.6-6.4,1.8s-2.5,2.7-2.5,4.6
		c0,1.7,0.6,3.1,1.9,4.2C390.4,370.7,392,371.2,394,371.2z"/>
	<path id="XMLID_40_" class="st1" d="M446.5,380.7c-3.1,0-5.9-0.6-8.4-1.9c-2.5-1.2-4.7-2.9-6.5-5c-1.8-2.1-3.2-4.6-4.2-7.4
		c-1-2.8-1.5-5.9-1.5-9.1c0-3.4,0.5-6.6,1.6-9.5c1.1-2.9,2.5-5.4,4.4-7.6c1.9-2.1,4.1-3.8,6.8-5.1c2.6-1.2,5.6-1.9,8.7-1.9
		c3.5,0,6.6,0.8,9.2,2.3c2.6,1.5,4.7,3.6,6.3,6.2v-7.6h12.3v43.2c0,3.5-0.7,6.7-2,9.5c-1.3,2.8-3.2,5.2-5.5,7.2
		c-2.4,2-5.2,3.5-8.5,4.5c-3.3,1.1-6.9,1.6-10.9,1.6c-5,0-9.3-0.8-12.8-2.4c-3.5-1.6-6.6-3.9-9.3-6.9l7.6-7.7
		c1.7,1.9,3.8,3.5,6.4,4.6c2.5,1.1,5.2,1.7,8.1,1.7c1.7,0,3.3-0.2,4.9-0.7c1.5-0.5,2.9-1.2,4.1-2.2c1.2-1,2.1-2.2,2.8-3.8
		c0.7-1.6,1-3.4,1-5.6v-4.5c-1.4,2.6-3.4,4.5-6.1,5.9C452.4,380,449.5,380.7,446.5,380.7z M451.3,369.4c2.2,0,4.1-0.6,5.8-1.8
		c1.7-1.2,3-2.8,4-4.6v-9.7c-0.9-2.5-2.4-4.4-4.3-5.9c-1.9-1.4-4-2.2-6.2-2.2c-1.5,0-2.9,0.3-4.2,1c-1.3,0.7-2.4,1.6-3.3,2.7
		c-0.9,1.1-1.6,2.5-2.1,4c-0.5,1.5-0.8,3-0.8,4.6c0,1.7,0.3,3.3,0.8,4.7c0.6,1.4,1.3,2.7,2.3,3.8c1,1.1,2.2,1.9,3.5,2.5
		C448.3,369.2,449.7,369.4,451.3,369.4z"/>
	<path id="XMLID_43_" class="st1" d="M507.1,381.4c-3.9,0-7.4-0.6-10.5-1.9c-3.1-1.3-5.7-3-7.9-5.2c-2.1-2.2-3.8-4.7-4.9-7.5
		c-1.1-2.9-1.7-5.8-1.7-9c0-3.4,0.6-6.5,1.7-9.5c1.1-3,2.7-5.6,4.9-7.8c2.1-2.2,4.7-4,7.8-5.3c3.1-1.3,6.6-1.9,10.5-1.9
		c3.9,0,7.4,0.6,10.5,1.9c3.1,1.3,5.6,3,7.8,5.3c2.1,2.2,3.7,4.8,4.8,7.6c1.1,2.9,1.6,5.9,1.6,9.1c0,0.8,0,1.6-0.1,2.4
		c-0.1,0.8-0.1,1.5-0.3,2.1h-34.2c0.2,3.1,1.4,5.5,3.4,7.1c2,1.6,4.3,2.4,6.9,2.4c2.1,0,4-0.5,6-1.5c1.9-1,3.2-2.4,3.8-4.1l12,3.4
		c-1.8,3.6-4.6,6.6-8.5,8.9C517,380.2,512.4,381.4,507.1,381.4z M516.9,352.9c-0.3-2.9-1.4-5.3-3.2-7c-1.8-1.7-4.1-2.6-6.8-2.6
		c-2.8,0-5,0.9-6.8,2.6c-1.8,1.7-2.8,4-3.1,6.9H516.9z"/>
</g>
<g id="XMLID_3_">
</g>
<g id="XMLID_46_">
</g>
<g id="XMLID_47_">
</g>
<g id="XMLID_48_">
</g>
<g id="XMLID_49_">
</g>
<g id="XMLID_50_">
</g>
<g id="XMLID_51_">
</g>
<g id="XMLID_52_">
</g>
<g id="XMLID_53_">
</g>
<g id="XMLID_54_">
</g>
<g id="XMLID_55_">
</g>
<g id="XMLID_56_">
</g>
<g id="XMLID_57_">
</g>
<g id="XMLID_58_">
</g>
<g id="XMLID_59_">
</g>
</svg>
