<?xml version="1.0" encoding="utf-8"?>
<!-- Generator: Adobe Illustrator 19.0.0, SVG Export Plug-In . SVG Version: 6.00 Build 0)  -->
<svg version="1.1" xmlns="http://www.w3.org/2000/svg" xmlns:xlink="http://www.w3.org/1999/xlink" x="0px" y="0px"
	 viewBox="0 0 1151 565.3" style="enable-background:new 0 0 1151 565.3;" xml:space="preserve">
<style type="text/css">
	.st0{display:none;}
	.st1{display:inline;fill:none;}
	.st2{fill:#FFFFFF;stroke:#D4D4D4;stroke-width:2;stroke-miterlimit:10;}
	.st3{fill:none;stroke:#D4D4D4;stroke-width:2;stroke-miterlimit:10;}
</style>
<g id="Layer_1" class="st0">
	
		<image style="display:inline;overflow:visible;" width="2000" height="2000" xlink:href="../../../../../../Downloads/Rail-Light---Transparent-Blend-2000x20000.png"  transform="matrix(0.9988 -4.927066e-002 4.927066e-002 0.9988 -471.0567 -759.5152)">
	</image>
	<polyline class="st1" points="241.6,341.3 239.5,338.5 28.1,280 	"/>
</g>
<g id="Layer_2">
	<path class="st2" d="M575.5,280.3"/>
	<g>
		<polyline class="st3" points="672.3,64.9 681.2,65.4 798,14 899.9,19.4 904.4,30.3 904.9,60.2 896.8,65.3 897.6,71.6 898.7,74 
			896.3,76.8 897.1,84.3 1127.4,96.7 1129.2,98.8 1129.6,106.5 1127.7,112.9 1123.3,117.6 1114.7,116.9 872.2,97.9 1123.3,117.6 
			1114.7,116.9 1116,129.2 1113.8,135.7 1108.1,143 1097.9,142.8 1098.2,155.9 1096.7,160 1090.3,166.3 805.4,138.6 803.3,141.7 
			1076.8,167.5 1077.4,169.8 1077.6,185.9 1076.8,188.4 1068.8,196.5 764.7,163.2 764.7,168.5 1051.4,205.2 1053.6,207.1 
			1054,220.8 1052.4,225.9 1044.7,236.3 719.6,191 719.7,196.1 1029.2,234.9 1030.2,249.6 1028.4,257 1019.1,269.2 1009.5,269.7 
			666.4,220.6 667.2,229.1 669.8,231.1 996.6,280.8 999.3,283.7 999.8,300.9 998.6,305.1 988,320.3 981.5,320.9 603,254.6 
			604.5,266.3 607.2,270.1 959.7,333.2 962.9,336.8 962.9,352.5 961.5,357.2 947.8,379.6 941.5,379.7 525.9,294.5 527.8,313.7 
			530.8,318.5 912.5,397.5 916.1,400.9 917.2,422.8 898.6,449.3 892.8,449.6 437.8,341 427.3,347.8 428,349.7 430.5,352 
			431.7,356.3 432.7,365.6 434.3,367.6 434.8,373 438.6,377.6 851,485.1 854.4,488.9 856.1,510 855,513.4 830.9,546.7 824.4,546.3 
			25,305.9 22,301.1 21.4,291.5 22.5,287.6 25.7,281.1 45.5,272.4 197.9,313.7 191.2,281.9 129.5,267 126.7,263.1 126.5,252.6 
			131.5,243.8 145.9,237.8 209.5,251.4 248.3,235.6 224.1,230.5 221.2,227.4 219.9,218.7 221.3,211.2 224.2,207.7 236.8,201.7 
			302.8,214.1 323.3,205.9 297.8,200.8 295.6,193.9 297.3,186.4 301.4,181.2 309.3,176.7 372.9,186.6 387.2,180.9 369.4,178 
			365.3,176.8 364.5,166 368.6,158.4 374.8,154 425.4,160.8 425.2,146.6 429.2,135 431.7,130.8 441.7,126.8 479.8,131.9 
			479.3,123.5 480.9,118.8 483.9,114.2 491.6,111.5 544.9,119.5 		"/>
		<polyline class="st3" points="523.7,101.1 527.3,95.7 533.5,92.8 570,96 569.3,86.8 572.1,80.2 579.1,78.4 604.4,81.2 603.8,70.3 
			606.8,65.1 672.3,68.6 666.7,68.5 666.7,68.5 		"/>
		<polyline class="st3" points="830.9,546.7 832.5,525.6 838.5,505.8 851.8,486 854.4,488.9 		"/>
		<polyline class="st3" points="201.8,318.1 200.7,318.5 197.9,313.7 		"/>
		<polyline class="st3" points="209,324.4 239.6,333.6 242.7,336.8 249.3,345.6 		"/>
		<polyline class="st3" points="29.9,279.3 245.3,340.3 249.3,345.6 251.5,346.2 250.4,349.8 311.1,368 312,364.9 315.1,363.8 
			332.6,369.5 330.1,369.9 329.1,373.2 396,392.3 399.4,389 408.3,391.7 411.2,398.3 407.7,400.8 397.8,397.8 396,392.3 399.4,389 
			408.3,391.7 414.2,387.6 434.8,373 414.2,387.6 833,503.8 833,507.3 830.9,511.8 408.3,391.7 		"/>
		<polyline class="st3" points="247.4,343.1 244.7,342.2 241.6,341.3 240.3,345.6 23.9,284.7 		"/>
		<polyline class="st3" points="403.7,390.3 403,377.7 399.9,376.7 397,374.4 395.5,370.5 396.7,366.9 377.6,378.2 373.7,377 
			374.3,375.1 373.4,372.4 241.2,335.3 373.4,372.4 374.3,375.1 373.7,377 377.6,378.2 360.7,319.3 348.2,295.9 198.2,258.4 
			191.2,281.9 198.2,258.4 209.5,251.4 198.2,258.4 348.2,295.9 725,111 533.5,92.8 716.8,110.3 715.1,109.1 714.1,107.2 
			713.8,103.8 714.4,101 715.9,97.5 718.1,94.7 720,93.8 721.7,94.2 722.9,95 724.3,96.6 724.9,98.1 725.2,100.2 725.1,102.3 
			724.9,104.3 724.5,105.9 723.7,107.2 722.3,108.8 719.5,110.5 716.8,110.3 715.1,109.1 714.1,107.2 713.8,103.8 714.4,101 
			715.9,97.5 718.1,94.7 718.9,93.7 604.4,81.2 599.5,83.9 597.6,88.6 597.7,98.9 597.6,88.6 598.2,87 570.6,83.9 572.1,80.2 
			600.1,83.6 		"/>
		<polyline class="st3" points="603.8,70.3 659.1,73.8 631.8,84.2 658.2,74 671.9,68.8 		"/>
		<polyline class="st3" points="396.7,366.9 427.3,347.8 437.8,341 491.3,308.4 492.3,310.8 496.4,312.1 497.1,309.8 496.3,307.3 
			502.5,303 503.8,327.3 498.7,326.5 496.1,329.1 496.9,337.1 507,339.8 511.8,336.5 511.2,333.5 515.8,334.6 516.3,332.7 
			515.2,330.6 513.3,325.4 528.7,315.2 		"/>
		<polyline class="st3" points="587.9,279.7 581.8,278.4 580.1,257.1 581.8,278.4 578.8,277.5 576.5,279.6 577,287.8 587.6,291 
			589,286.3 587.9,279.7 604.5,266.3 600.8,243.5 586.2,252.8 600.8,243.5 732.5,166.1 746.5,168.2 745.7,159.2 747.8,159.7 
			896.8,65.3 		"/>
		<polyline class="st3" points="502.5,303 525.3,289.4 525.9,294.5 525.3,289.4 569.3,263.4 574.7,265.8 577,265.8 576.2,259.8 
			586.2,252.8 		"/>
		<polyline class="st3" points="899.9,19.4 733.5,105.6 724.8,104.9 733.5,105.6 736.3,108.9 741.5,119.5 745.7,159.2 746.5,168.2 
			738.5,167 732.5,166.1 735,166.5 734.4,124.9 727.6,110.7 		"/>
		<path class="st3" d="M358.5,315l10.9,3.3c0.4,0.1,0.8,0.1,1.2-0.1l361.5-190.6c1.1-0.6,2.3,0.2,2.3,1.4l0.1,11.4
			c0,0.6-0.3,1.1-0.8,1.4l-125.8,70c-1.1,0.6-2.3-0.2-2.4-1.4l-0.1-3.2c0-0.8-0.6-1.4-1.3-1.5l-4.1-0.8c-0.6-0.1-1.2,0.1-1.6,0.6
			l-0.9,1.3c-0.2,0.3-0.3,0.6-0.3,0.9l0,11.5c0,0.9-0.8,1.7-1.7,1.6l-1-0.1c-0.6-0.1-1.1,0.2-1.5,0.7l-1,1.5
			c-0.2,0.2-0.3,0.5-0.3,0.8l-0.2,3.1c0,0.1,0,0.2,0,0.3l0.4,3.2c0,0.1,0,0.2,0.1,0.3l0.8,2.1c0.2,0.5,0.6,0.9,1.2,1l10,2l3.6-1.3
			c0.5-0.2,0.9-0.6,1-1l0.4-1.4c0.1-0.2,0.1-0.4,0.1-0.6l-0.9-9.7c-0.1-0.8-0.7-1.4-1.4-1.4l0,0c-0.8-0.1-1.5-0.8-1.4-1.7l0.2-8.2"
			/>
		<polyline class="st3" points="593.6,220.7 376.2,339.3 370,318.5 376.2,339.3 385.5,373.4 		"/>
		<polyline class="st3" points="209.5,251.4 597.7,98.9 323.3,205.9 		"/>
		<polyline class="st3" points="741.8,122.4 904.5,32.1 904.6,43.4 844.2,78.9 844.3,72.2 839.1,71.8 837.8,73.6 839.6,87.9 
			841.8,90.2 847.2,90.1 851.2,87.2 851.8,82.7 849.4,80.5 844.2,78.9 844.3,72.2 839.1,71.8 837.8,73.6 838.8,81.2 743.3,136.5 		
			"/>
		<polyline class="st3" points="590,101.9 527.3,95.7 523.7,101.1 578.2,106.5 553.5,116.2 538,122.2 483.9,114.2 480.7,119.4 
			528.4,125.9 550.6,117.3 		"/>
		<polyline class="st3" points="523.7,101.1 524.3,110.2 526.5,111.7 556.8,114.9 		"/>
		<polyline class="st3" points="606.8,65.1 621.6,61.9 672.3,64.9 		"/>
		<polyline class="st3" points="430.9,132.2 491.7,140.3 482,144 428.6,136.8 		"/>
		<polyline class="st3" points="423.1,167 367.9,159.7 365.6,164 413.3,170.8 		"/>
		<polyline class="st3" points="300.6,182.3 358.9,192 348.6,196 297.1,187.3 		"/>
		<polyline class="st3" points="248.3,235.6 274.1,225.4 220.5,215.3 221.3,211.2 279.8,223 285.1,220.9 223.6,208.4 		"/>
		<polyline class="st3" points="197.9,259.4 131.5,243.8 127.9,250.1 195.9,266.2 		"/>
		<polyline class="st3" points="21.9,289.9 239.5,353.6 241.5,352.7 239.2,349.8 240.3,345.6 		"/>
		<polyline class="st3" points="411.2,398.3 828.4,516.3 828.8,520.6 826.4,522.4 239.5,353.6 		"/>
		<path class="st3" d="M315.1,363.8"/>
		<path class="st3" d="M458.7,328.3"/>
		<polyline class="st3" points="498.7,326.5 471.6,320.5 465.8,324 496.2,330.6 496.9,337.1 		"/>
		<polyline class="st3" points="514.5,328.7 897.6,411.4 897.9,415.7 896.2,417.7 515.8,334.6 		"/>
		<line class="st3" x1="460.6" y1="327.1" x2="496.7" y2="334.9"/>
		<polyline class="st3" points="510.8,337.2 895.6,422.4 895.9,425.7 894.3,427.7 507,339.8 		"/>
		<polyline class="st3" points="898.6,449.3 898.1,438.3 904,413.4 914,398.5 		"/>
		<path class="st3" d="M947.8,379.6"/>
		<polyline class="st3" points="950,376.1 949.5,364.4 952.7,348.3 961.6,334.1 		"/>
		<polyline class="st3" points="990.3,316.9 989,306.3 992.5,291.3 998.6,283 		"/>
		<polyline class="st3" points="1021.8,265.7 1020.2,257.3 1023.1,242.6 1029.2,234.9 		"/>
		<polyline class="st3" points="1048.2,231.6 1045.7,226.1 1048,214.6 1053.1,206.7 		"/>
		<polyline class="st3" points="1073.3,192 1071.5,184.8 1073.9,176.7 1077.4,169.8 		"/>
		<polyline class="st3" points="1111.9,138.2 1111.4,129.3 1112.2,126.9 1115,119.9 		"/>
		<polyline class="st3" points="1127.7,112.9 1126,107.7 1129.2,98.8 		"/>
		<line class="st3" x1="577.9" y1="278.3" x2="552.6" y2="273.2"/>
		<line class="st3" x1="576.9" y1="286.1" x2="543.2" y2="279.3"/>
		<polygon class="st3" points="594.7,278.8 948.4,345.1 948.7,347.5 947.7,351.1 945.9,351.9 593.3,283.6 593.2,282.2 594.1,279.2 
					"/>
		<polyline class="st3" points="589,286.3 945.4,354.6 946.1,356.3 945.3,359 943.9,360.4 587.6,291 		"/>
		<polyline class="st3" points="650.8,214.2 652.2,240 649.7,241.8 650.4,246.1 642,244.7 640.8,241.6 643.6,237.4 649,236.9 
			648.1,227.6 645.1,227.3 642.2,225.6 642.6,222.6 642.5,219 		"/>
		<polyline class="st3" points="649.9,246 656.3,243 655.4,237 667.2,229.1 666.4,220.6 665.8,211 662.8,210.1 662.7,207.2 		"/>
		<polyline class="st3" points="650.4,246.1 985.2,301.6 986.6,301.1 986.8,297.8 985.1,297.1 656.3,243 655.4,237 986.9,289.5 
			988,291 988,293.1 986.9,294.7 656.3,243 		"/>
		<polyline class="st3" points="643.6,237.4 618.8,232.9 609,238.7 642,244.7 		"/>
		<polyline class="st3" points="706.7,180.1 718.4,174.4 719.6,191 719.7,196.1 707.6,201.9 1019.4,241.3 1020.1,242.7 
			1019.6,244.2 1018.6,245.1 707.8,205.3 		"/>
		<polyline class="st3" points="675.3,199.8 697,203.1 697.2,208.9 705.1,211.3 707.1,208.1 708.1,206.5 707,202.4 707.6,201.9 		
			"/>
		<polyline class="st3" points="697,203.1 703.4,201.1 702.6,183.7 703.4,201.1 707,202.4 		"/>
		<polyline class="st3" points="707.5,208.5 1017.5,248.1 1018.5,249.4 1018.1,250.6 1016.6,251.1 705.1,211.3 697.2,208.9 
			667.8,204.1 		"/>
		<polyline class="st3" points="718.5,175.9 742.4,180.1 743.7,175.8 722.8,172.3 		"/>
		<polyline class="st3" points="743.7,175.8 746.7,172.9 749.7,173.8 748.8,159 764.6,149.3 764.7,163.2 		"/>
		<polyline class="st3" points="742.4,180.1 753.6,180.8 1041.3,220.3 1043.5,220.5 1044,219.1 1043,217.8 753.2,180.6 751.6,178.2 
			1042.5,215 1044.1,214.3 1044.6,212.6 1043.7,211.4 754.7,175.1 764.7,168.5 		"/>
		<line class="st3" x1="771.3" y1="145" x2="786.9" y2="146.1"/>
		<polyline class="st3" points="790.9,132.8 790.8,143.1 786.1,146.1 785.5,150.6 785.4,150.9 764.6,149.3 		"/>
		<polyline class="st3" points="785.4,150.9 787.6,153.4 794.2,153.5 795.6,151.3 795,147 803.3,141.7 805.4,138.6 804.6,123.9 		
			"/>
		<polyline class="st3" points="795,147 1069.5,172.2 1070.4,173.4 1069.9,175.1 1068.7,176.1 795.6,151.3 794.2,153.5 
			1068.7,179.1 		"/>
		<polyline class="st3" points="829.9,107.9 828.7,120.4 823.3,122.6 809.5,120.8 805.8,123.1 804.8,126.5 822.7,129.3 822.3,122.5 
			822.7,129.3 828.6,131.1 832.8,126.9 833.1,122 839.5,119.2 839.8,113.5 841.9,111.5 842.5,109.4 840.9,107.1 839.1,105.1 
			839.4,101.8 860.5,88.4 860.6,100.7 856.1,102.8 855,109.6 856.9,113.1 860.8,113.8 863.4,112.3 864.8,107.5 863.9,104.1 
			872.2,97.9 870.6,94 872.2,89.5 871.7,87.1 869.8,85.3 869.6,82.6 884.5,73.1 886.6,71.8 884.5,75.3 884,78 884.1,80.1 
			887.2,81.3 886.2,84.4 869.6,83.5 		"/>
		<line class="st3" x1="833.1" y1="122" x2="1098" y2="144.8"/>
		<polyline class="st3" points="839.5,119.2 1097.9,142.8 1094.4,150.1 1093.9,152.9 1094.8,161.8 		"/>
		<line class="st3" x1="833" y1="124.1" x2="1090.5" y2="146.5"/>
		<line class="st3" x1="831.8" y1="127.9" x2="1090.2" y2="151.7"/>
		<line class="st3" x1="863.9" y1="104.1" x2="1108" y2="124"/>
		<line class="st3" x1="864.4" y1="108.9" x2="1107.3" y2="129"/>
		<line class="st3" x1="893.2" y1="88.3" x2="1122.5" y2="100.8"/>
		<line class="st3" x1="871.7" y1="87.1" x2="887.5" y2="88"/>
		<line class="st3" x1="892" y1="91.8" x2="1122.3" y2="104.9"/>
		<line class="st3" x1="872.1" y1="90.6" x2="887.5" y2="91.5"/>
	</g>
	<line class="st3" x1="425.4" y1="160.8" x2="435.8" y2="162"/>
	<path class="st3" d="M672.3,68.6"/>
	<path class="st3" d="M671.9,68.8"/>
	<path class="st3" d="M672.4,68.8"/>
	<line class="st3" x1="631.8" y1="84.2" x2="681.2" y2="65.4"/>
	<line class="st3" x1="855.2" y1="108" x2="840.9" y2="107.1"/>
	<line class="st3" x1="856" y1="103.6" x2="839.3" y2="102.7"/>
	<line class="st3" x1="860.6" y1="96.7" x2="848.1" y2="95.7"/>
	<line class="st3" x1="860.5" y1="91" x2="856.9" y2="90.6"/>
	<polyline class="st3" points="886.2,84.4 887.2,88 886.4,91.5 887.2,94 891.5,94.2 892.8,91.8 893.6,88.3 897.1,84.3 	"/>
	<path class="st3" d="M209.6,324.5l-2-4.3c-0.5-1.1-1.6-1.9-2.9-1.9l-4.3-0.2l1,3.6c0.5,2.4,2.9,3.9,5.2,3.2l2.4-0.7"/>
	<line class="st3" x1="285.5" y1="221" x2="303.3" y2="214.1"/>
</g>
</svg>
