<?xml version="1.0" encoding="utf-8"?>
<!-- Generator: Adobe Illustrator 19.0.0, SVG Export Plug-In . SVG Version: 6.00 Build 0)  -->
<svg version="1.1" id="Layer_1" xmlns="http://www.w3.org/2000/svg" xmlns:xlink="http://www.w3.org/1999/xlink" x="0px" y="0px"
	 viewBox="0 0 288 100.5" style="enable-background:new 0 0 288 100.5;" xml:space="preserve">
<style type="text/css">
	.st0{fill-rule:evenodd;clip-rule:evenodd;fill:#D4D4D4;}
	.st1{fill:#4DAF4E;}
</style>
<path class="st0" d="M281.2,55.3c-2.8,2.5-6,3.9-11.8,6.5c-6.2,2.9-12,3.6-15.7,3.6c0.5,0-6.2-0.6-6.5-4.5c-0.1-1,0-1.6,1.7-3.9
	c0-0.4-0.4-0.8-0.6-0.6c-5.7,2.5-9.4,3.9-12.5,5.2c-4.8,2.1-10.6,4.5-12.2,4.5c-1.9,0-1.9-2.1-2.2-3.4c-0.1-0.8,0.6-1.3,1-1.9
	c0.4-0.5,1.8-1.2,2.3-1.6c1.2-1,4-3,5.2-4.3c2.1-2.2,4.5-4,6.6-6c1.4-1.4,7.1-5.8,7.5-7.1c0.4-0.4,0.4-0.6,0.1-1
	c-4.9,2.2-10.1,4.7-14.4,7c-4.8,2.7-11.3,5.9-18.3,9.4c-5.8,3.4-12.9,7-15.2,7.7c-4.7,1.6-10.9,3.2-15.5,3.2c-2.5,0-5.8-1.2-5.8-4.2
	c0-4.7,2.5-9.9,5.4-13.4c2.5-3,3.4-4,7.6-7.5c5.4-4.4,7.8-4.7,11.1-4.7c2.2,0,6.1,1,6.1,3.9c0,2.3-4.3,8.7-6.9,8.7
	c-0.9,0-1.7-0.5-1.7-1.6c0-0.4,0.1-0.8,0.5-1.4c0.6-0.7,1.6-1.9,1.6-2.9c0-1.3-1.8-1.8-3-1.8c-6,0-14.8,10.4-14.8,16.2
	c0,3.1,3,3.5,5,3.5c5.8,0,12.3-2.4,18.3-5.3c0.1-0.3,0.4-0.6,0.8-0.9c11.3-6,28.7-14.9,46.8-24.9c2.1-1.2,2.7-3,4.7-4.5
	c3-3.2,13.5-12.5,18-11.9c1.7,0.1,1.7,0.6,1.8,2.2c0.3,2.9-2.6,4.8-20.1,17.1c-2.5,1.8-11.5,11.4-17.6,16.7
	c-1.6,1.4-4.1,3.2-4.1,5.1c-0.4,1.4,3.1-0.3,3.1-0.3c1.7-0.6,4.1-1.6,6-2.2c7.8-2.7,10.4-3.8,12-4.2c1.4-0.3,3.1-0.3,3.2,1.4
	c0.1,1-6.3,3.6-6.1,7.4c0,0.6-0.3,1.4,0.1,1.8c1,0.9,2.5,1.3,4.1,1.2c4.4,0,14.6-4.2,18.9-6.7l0.8-0.4c1-0.5,2.2-1,2.8-1
	c0.8,0,1.8,0.4,1.8,0.8C281.5,54.7,281.5,54.9,281.2,55.3L281.2,55.3z"/>
<path class="st0" d="M188.7,35.2c-3.5,0.6-7,1.3-14.8,2.1c-5.3,0.5-10,0.6-16.7,1.2h0.1c-2.2,3.2-13.3,17-15,22.2
	c0,1.8,1.8,2.9,3.6,2.7c7.6-0.4,19.5-5.1,25.6-8.7c0.5-0.3,1.7,0,2.1,0c0.3,0,0.4,0.1,0.5,0.3c-0.1,1.6-1.7,2.6-3.5,3.8
	c-9.1,5.4-25.4,10.8-34.2,10.8H136c-0.8,0-1.4,0-2.1-0.3c-0.5-0.3-1-0.7-0.9-1.8c0.3-2.6,2.2-5.3,3.9-7.8c0.3-0.4,0.5-0.8,0.8-1
	c4.7-6.5,7.8-12.2,13.2-20.1c-1.7-0.4-4-2.3-3.9-3.5c0.1-2.1,5.4-2.1,8.4-2.1h0.6c1-1.3,1.9-2.3,3-3.6c1-1.4,2.1-2.9,3.1-4.3
	c1.8-2.5,3.8-4.8,6-7.7c1.8-2.1,5-5.6,7.2-5.7c0.5,0,0.8,0.3,0.8,0.9c-0.1,1.7-2.1,4.3-3.2,5.6c-0.1,0.1-0.3,0.4-0.5,0.6
	c-2.3,2.9-8.8,12.1-10.9,14.7c4.1,0.4,6.3,0.1,9.3,0.1h17.6l2.1,0.4c0.3,0,0.1,0.6,0,0.8C190.4,34.8,189.8,34.9,188.7,35.2
	L188.7,35.2z"/>
<path class="st0" d="M138.6,34.6c0,0.7-1,0.9-1.2,1.2h-1.9l-0.2-0.4h-1.5l-1.5-1.8c0-0.7-1-0.9-1.2-1.6c0,0,0-1.2-0.3-1.2v-2.3
	c-0.3,0-0.3-0.2-0.3-0.4c0-1.1,0.9-2.5,2.2-2.5h0.7c0.5,1.1,3.9,0.2,3.9,3.7c0,0.2,0,0.7-0.2,0.7v1.9
	C137.3,32.1,138.6,34.6,138.6,34.6L138.6,34.6z"/>
<path class="st0" d="M135.7,39.9c2.8,5.4-8.8,27.1-8.8,27.1c-2.9,4.5-5.9,1.8-5.9,1.8c-0.6-2.7,1.8-5.3,1.8-5.3c0.9-0.3,10-20,10-20
	c0.7-3.2-2.9-1.2-2.9-1.2c-1.2,1.2-2.9,1.2-2.9,1.2c-1.9-2.1,0-3.5,0-3.5C132.3,36.4,135.7,39.9,135.7,39.9L135.7,39.9z"/>
<path class="st0" d="M106.6,51.6c-0.4,0.4-2.4,3.7-7.2,11.1L96.7,69c-0.7,0.5-0.6,0.8-1.2,1.1c-1.3,0.6-1.7,0.1-2.4,0
	c-2.7-1.5-1.3-3.6-0.9-7.4c0.2-1.9,0.8-3.4,0.4-6.2c-0.3-1.5-1-2.5-1.8-3.5c-0.4,0-0.4-0.4-1.7-0.4c0,0-0.2,0-3.3,1.3l-5.3,4.4
	c-1.2,1-2.1,1.7-3.4,2.5L77.2,61l-1.3,0.5c-0.1-0.1-2,0.3-2.6,0.4c-0.4,0-1.2-0.2-1.2-0.2L71,60.3l0.1-0.2c-0.5-1.4,0.3-1.7,1.2-2.9
	c0.2-0.1,0.4-0.8,0.6-0.8l0.4-0.3c0.2-0.5-0.2-0.5,0.3-0.9l6.1-11.1c1.6-3.3,1.4-4.7,1-6.1l0.1-0.1c0,0-0.1-0.4,0.5-1.3l0.3-0.1
	c1.3-0.5,1.7,0.1,2.9,0.1l0.6,0.6c0.3,0.1,0.8,4.9,0.3,5.4c-0.5,3.2-2.5,5.1-3.1,7.9c-0.1,0.6,1,0.3,1.3,0.4l6.3-2.6
	c1.4-0.6,6.1-0.6,7.6,5.3l0.7,0.8c0.2,0.2,0.6,0,0.7-0.1c1-0.4,1.3-1.4,1.7-2.1c2.1-1.6-0.7,1,11.3-12.1l4.9-4.4l0.1,0.1
	c0,0,3.1,0.1,3,3.4C117.1,41.1,116,40.8,106.6,51.6L106.6,51.6z"/>
<path class="st0" d="M111.6,16c-2.2-5.5-9.3-5.3-9.3-5.3c-19.6-0.2-34.5,28.5-34.5,28.5c-2,4-9.1,12.6-9.3,13.3
	C43.8,72.2,20.7,69.7,20.7,69.7c-14.3-2-11.3-8-11.3-8c2.3-1.7,5.3,0.7,5.3,0.7C46.9,69,61.8,39.2,61.8,39.2
	C74.5,14.8,93.7,7.4,93.7,7.4c21.9-7.1,22.6,8,22.6,8C114.8,20.3,111.6,16,111.6,16L111.6,16z"/>
<g>
	<path class="st1" d="M189,85.8h5v7.9c-2.1,1.5-5.6,2.5-8.4,2.5c-6.1,0-10.6-4.3-10.6-10.1c0-5.7,4.6-10,10.9-10c3,0,6.2,1.1,8.3,3
		l-3.3,4c-1.3-1.3-3.3-2.1-5-2.1c-2.8,0-5,2.2-5,5.2c0,3,2.2,5.2,5,5.2c0.8,0,1.9-0.3,3-0.8V85.8z"/>
	<path class="st1" d="M208.4,96l-2.6-5.3h-3.1V96h-5.8V76.4h9.2c5.3,0,8.3,2.5,8.3,7c0,2.9-1.2,5-3.3,6.2l4,6.4H208.4z M202.7,86.2
		h3.3c1.7,0,2.7-1,2.7-2.7c0-1.7-1-2.7-2.7-2.7h-3.3V86.2z"/>
	<path class="st1" d="M237.4,86.2c0,5.8-4.5,10.1-10.7,10.1c-6.2,0-10.7-4.3-10.7-10.1c0-5.8,4.5-10,10.7-10
		C232.9,76.2,237.4,80.4,237.4,86.2z M222,86.2c0,3,2.2,5.2,4.8,5.2c2.6,0,4.6-2.2,4.6-5.2s-2.1-5.1-4.6-5.1
		C224.2,81.1,222,83.2,222,86.2z"/>
	<path class="st1" d="M243.8,76.4l3.4,13.6l3.3-13.6h5.7l3.4,13.6l3.3-13.6h6L262.3,96h-6l-3.1-12.5L250,96h-6l-6.4-19.6H243.8z"/>
</g>
</svg>
